/* XPM */
static char *_d66a4fa22ab4b51f8e9cf658630ba26[] = {
/* columns rows colors chars-per-pixel */
"64 64 30 1 ",
"  c None",
". c black",
"X c gray10",
"o c #282828",
"O c #353535",
"+ c #5C3E1A",
"@ c #6C461F",
"# c #754B23",
"$ c #464646",
"% c #535353",
"& c #646464",
"* c #717171",
"= c gray49",
"- c #9D4B00",
"; c #B55300",
": c #CD6000",
"> c #E56C00",
", c #FC7900",
"< c #FC891A",
"1 c #FC993E",
"2 c #FCAA5C",
"3 c #8D8D8D",
"4 c gray60",
"5 c #A9AAAA",
"6 c gray71",
"7 c #C1C1C1",
"8 c gray82",
"9 c #DDDDDD",
"0 c gray93",
"q c gray99",
/* pixels */
"                                                                ",
"                                                                ",
"                                                                ",
"                                                                ",
"                                                                ",
"                                                                ",
"                                                                ",
"                                                                ",
"                                                                ",
"                                                                ",
"                                                                ",
"                                                                ",
"                                                                ",
"                                                                ",
"                                                                ",
"                                                                ",
"                                                                ",
"                                                                ",
"                                                                ",
"                                                                ",
"                                                                ",
"                                                                ",
"                                                                ",
"                                                                ",
"                                                                ",
"                                                                ",
"                                                                ",
"                                                                ",
"                                                                ",
"                                                                ",
"                                                                ",
"                                                                ",
"                                                                ",
"                                                                ",
"                                                                ",
"                                                                ",
"                                                                ",
"                                                                ",
"                222222222222222222222222222222222               ",
"           1111111111111111111111111111111111111111111          ",
"           >>,,<<<<<<<<<<<<<<<<<<<<<<<<<<<<<<<<<<<,:++          ",
"           >>>>>>>>::::::::;;;;;;;-------####@@@++++++          ",
"               >>>>::::::::;;;;;;;-------####@@@++              ",
"                            OOOOOooXX                           ",
"                            $$$$OOoXX                           ",
"                            =%$$$OoXX                           ",
"                            53%$$OOoX                           ",
"                            53*%$$OoX                           ",
"                            573*%$OoX                           ",
"                            5953%$OoX                           ",
"                            5975*%OoX                           ",
"                            58753%OoX                           ",
"                            58075%OoX                           ",
"                            58075&OoX                           ",
"                            58095&$oX                           ",
"                            58095*$oX                           ",
"                            58095*$OX                           ",
"                            58095*$OX                           ",
"                            58095*$OX                           ",
"                        455558095*$OXOOooX%%%%%%%%%%%&&&&&&&    ",
"                     489qqq958095*$OXooooooooOOOOOOOOOOOOO$%%&  ",
"                    8qqqqq9755555*$oooooooooXXXXXXXXXXXXooO$$%& ",
"                    4888q9779q8863=&$$OooooXX.........XXoO$$%&  ",
"                       488798888833=&$$OoXXXXXXXXXXXXXooO$%&    "
};
